<svg version="1.1" id="Layer_1" xmlns="http://www.w3.org/2000/svg" xmlns:xlink="http://www.w3.org/1999/xlink" x="0px" y="0px"
	 width="100%" viewBox="0 0 842 538" enable-background="new 0 0 842 538" xml:space="preserve">
<path fill="#FEFEFE" opacity="1.000000" stroke="none" 
	d="
M605.000000,539.000000 
	C403.333344,539.000000 202.166672,539.000000 1.000000,539.000000 
	C1.000000,359.666656 1.000000,180.333328 1.000000,1.000000 
	C281.666656,1.000000 562.333313,1.000000 843.000000,1.000000 
	C843.000000,180.333328 843.000000,359.666656 843.000000,539.000000 
	C763.833313,539.000000 684.666687,539.000000 605.000000,539.000000 
M681.314819,319.846710 
	C675.676208,317.928162 671.856567,314.795563 671.744141,308.093506 
	C671.661377,303.160522 670.960754,298.167572 669.913330,293.336243 
	C667.958679,284.320099 661.580322,279.710724 652.375854,279.982391 
	C636.980774,280.436707 626.275085,290.522095 614.645996,298.552979 
	C611.772461,300.537384 612.984497,303.598297 614.704529,306.546600 
	C621.305603,317.861542 627.797974,329.252319 633.901306,340.841064 
	C638.233459,349.066681 642.001038,357.600067 645.771606,366.106476 
	C647.603821,370.239807 650.740723,372.436157 654.899719,372.867737 
	C659.142456,373.308014 663.461182,373.020966 667.746643,373.042694 
	C672.635498,373.067474 675.019653,369.969788 673.473572,365.320953 
	C671.430420,359.177765 669.194702,353.098633 667.493103,346.637085 
	C666.814331,345.388336 666.135620,344.139587 665.216370,342.313293 
	C665.253845,341.903534 665.291260,341.493805 666.022949,340.972137 
	C668.059631,340.535553 670.344971,339.307281 672.074097,339.850189 
	C674.591064,340.640472 676.560059,343.030853 679.029114,344.152588 
	C682.773926,345.853882 686.747498,347.051514 691.372864,348.670990 
	C698.705017,349.662903 703.368591,344.630096 704.045410,334.209045 
	C703.472351,330.911285 705.531921,326.622284 700.372437,325.077667 
	C697.445251,324.201324 694.667847,322.815155 691.730957,321.983429 
	C688.551758,321.082947 685.265442,320.560486 681.314819,319.846710 
M572.054688,401.828339 
	C572.230774,400.288605 572.658020,398.728882 572.537109,397.212830 
	C572.130615,392.116669 571.116943,387.028412 571.211121,381.953369 
	C571.247253,380.007690 573.346680,376.795776 575.014832,376.419922 
	C580.941406,375.084656 587.079346,374.330658 593.154358,374.208374 
	C595.239258,374.166382 597.878662,376.208954 599.384155,378.027954 
	C602.740662,382.083466 605.453430,386.665833 608.650757,390.864288 
	C609.234558,391.630890 610.871155,391.595734 612.797302,392.172455 
	C619.835632,391.286377 622.126221,384.963226 625.899170,380.469086 
	C628.886475,376.910767 628.266052,372.515961 626.489868,368.632507 
	C620.411560,355.343048 614.119934,342.150787 607.863037,328.943542 
	C600.803528,314.042175 588.265564,304.379700 575.222412,295.315399 
	C569.714600,291.487732 564.384094,292.198853 559.384277,296.881866 
	C553.666138,302.237701 549.559082,308.727234 547.898132,316.392181 
	C546.314087,323.701904 545.061279,331.118866 544.245300,338.552612 
	C542.079346,358.285522 540.292114,378.040924 545.668152,397.630707 
	C546.049072,399.018799 544.853088,400.772186 544.945129,402.322754 
	C545.083679,404.653351 545.303955,407.169189 546.346069,409.157257 
	C546.732605,409.894623 549.668091,409.800293 551.214905,409.334259 
	C556.762756,407.662811 562.223999,405.698761 567.694092,403.777557 
	C568.960083,403.332916 570.131836,402.620148 572.054688,401.828339 
M248.795654,205.684006 
	C263.235687,213.096771 277.675690,220.509537 292.646027,228.194519 
	C293.113373,227.635574 294.682800,226.425415 295.361328,224.835129 
	C298.899933,216.541199 305.641235,211.384949 312.925110,206.924026 
	C345.938507,186.705276 382.188354,177.039337 420.568207,175.514694 
	C430.394775,175.124344 440.452362,177.220703 450.200928,179.182739 
	C459.010437,180.955765 465.569855,185.918106 466.901764,195.862473 
	C467.629547,201.296249 469.292938,206.605316 470.009766,212.039825 
	C473.415771,237.861923 473.359558,263.740051 470.811096,289.802856 
	C471.377014,290.007263 471.969971,290.291901 472.595337,290.437103 
	C492.690063,295.103973 512.808838,299.670624 532.863159,304.504791 
	C535.923279,305.242432 536.618896,303.542786 537.780518,301.715149 
	C544.657104,290.895599 553.153198,281.568237 563.959351,274.609589 
	C565.853210,273.390015 569.124756,272.923553 571.213013,273.660095 
	C576.783264,275.624756 582.180664,278.199371 587.406799,280.982086 
	C591.576721,283.202393 594.788452,283.789825 599.667419,281.452240 
	C610.712402,276.160522 622.199890,271.417786 633.983704,268.191101 
	C640.507141,266.404785 643.871765,263.823517 644.734558,257.481049 
	C644.824036,256.823700 645.008240,256.176361 645.183716,255.533997 
	C650.436157,236.309967 658.726746,218.697693 672.354431,203.858215 
	C673.365417,202.757339 674.041321,200.967621 674.125305,199.456589 
	C674.811829,187.102844 678.408264,175.557953 683.819397,164.565353 
	C686.740479,158.631424 690.184021,152.954712 693.606018,146.775253 
	C691.598816,145.099426 689.616516,143.365082 687.552979,141.733353 
	C654.862793,115.883568 617.861755,98.333832 578.553101,85.269760 
	C576.399841,84.554123 573.929443,84.144104 571.704712,84.410500 
	C564.281250,85.299408 556.748901,85.956009 549.533386,87.786247 
	C520.416992,95.171806 491.026550,101.815514 464.284760,116.362823 
	C458.936646,119.272148 454.332184,116.937607 453.825409,110.997871 
	C452.920258,100.389748 452.206696,89.751221 451.902130,79.111412 
	C451.732422,73.181595 452.548676,67.223557 452.942383,60.929714 
	C450.233612,60.652943 447.789978,60.311626 445.334778,60.165871 
	C391.158783,56.949738 337.456360,60.316170 284.367065,71.923691 
	C241.162674,81.369949 199.885483,95.954323 161.305542,117.868790 
	C157.103683,120.255562 156.396561,122.711052 157.334366,127.004944 
	C159.130493,135.228851 160.451981,143.556427 162.144592,152.791214 
	C158.768341,152.791214 155.128372,153.363297 151.742157,152.679214 
	C143.109894,150.935364 134.536865,148.823975 126.054474,146.450912 
	C122.865486,145.558762 120.661568,146.062790 118.483109,148.348328 
	C109.529091,157.742508 99.994583,166.640839 91.640320,176.537613 
	C72.577316,199.120392 61.998390,225.332001 61.094898,255.019928 
	C60.095871,287.846985 72.111198,316.228729 92.286049,341.410828 
	C114.633774,369.305084 142.927658,389.814117 174.421005,406.213135 
	C199.773026,419.414337 226.314560,429.559296 253.770020,437.392273 
	C255.444824,437.870087 257.125397,438.327637 259.936035,439.109863 
	C253.992584,429.517639 248.605774,421.651459 237.774536,418.978668 
	C217.417343,413.955200 198.671478,405.165405 180.990265,393.815155 
	C151.921814,375.154968 130.199158,349.518585 110.621086,321.657471 
	C99.746475,306.182037 91.754791,289.434570 88.763969,270.760254 
	C86.377884,255.861816 87.571091,240.788635 91.055977,226.157028 
	C94.075256,213.480286 100.744171,202.728470 113.939537,198.546005 
	C136.785461,191.304672 160.156754,186.613235 184.289459,189.468765 
	C206.189850,192.060181 227.597076,196.976562 248.795654,205.684006 
M300.715912,273.469788 
	C300.520142,276.942200 299.900330,280.451599 300.199463,283.880829 
	C301.785583,302.062042 305.790222,319.678802 312.369812,336.763977 
	C322.460297,362.965851 341.636658,382.628510 359.888794,402.831085 
	C370.997864,415.127258 381.265076,428.462830 395.507599,437.664246 
	C396.537872,438.329865 396.671326,440.383636 397.221741,441.792023 
	C395.753571,442.337067 394.108185,443.599091 392.851440,443.288574 
	C389.493500,442.458771 386.202606,441.164642 383.063141,439.678802 
	C372.229980,434.551697 361.430023,429.350220 350.695831,424.019226 
	C330.618622,414.048096 313.053864,400.717590 298.322723,383.815033 
	C295.162872,380.189392 292.935272,375.751312 290.185638,371.545929 
	C285.309021,398.626617 287.957581,419.063416 310.332214,439.400757 
	C321.772095,449.799011 333.895935,459.544098 346.383911,468.662323 
	C359.146149,477.980743 372.482971,486.772675 388.057465,490.857483 
	C406.987061,495.822296 426.305542,498.217468 445.898590,498.455414 
	C452.320862,498.533386 457.934113,496.549957 463.351044,493.327911 
	C466.223022,491.619568 466.990601,489.655090 465.411804,486.778564 
	C459.577606,476.149078 454.750397,464.785675 447.683563,455.048920 
	C428.715820,428.914917 408.816406,403.456055 389.229309,377.773071 
	C377.487244,362.376617 368.006714,345.694031 363.722382,326.773132 
	C357.576416,299.630524 365.750092,275.224945 381.348083,253.287094 
	C385.707794,247.155334 393.136932,243.183914 399.269043,238.362656 
	C400.024780,237.768463 401.469086,238.050079 402.789520,237.904282 
	C372.642853,283.948547 393.624420,337.783997 417.095398,349.066681 
	C418.885925,338.170502 419.796936,326.633118 422.834869,315.685944 
	C426.472687,302.577271 431.680969,289.876556 436.648041,277.170746 
	C445.605377,254.257812 449.195038,230.645660 446.669922,206.169189 
	C446.496155,204.484848 445.277618,201.945328 443.970734,201.503967 
	C437.587280,199.348358 430.938934,196.018219 424.510803,196.274780 
	C385.365967,197.837173 350.607513,211.518753 320.283936,236.351562 
	C318.754852,237.603790 317.117065,239.038727 316.267609,240.753937 
	C311.031189,251.327362 306.006744,262.005768 300.715912,273.469788 
M234.485107,264.920258 
	C243.884216,267.748962 253.357254,270.359375 262.648651,273.506165 
	C266.779144,274.905060 269.985382,274.297180 273.023895,271.856628 
	C273.023895,271.208954 273.088226,270.868530 273.009125,270.565491 
	C272.883911,270.085907 272.661530,269.631836 272.482208,269.166229 
	C261.001862,239.354477 237.064499,223.056076 208.322281,214.604156 
	C191.364075,209.617416 172.835007,208.995804 154.950928,208.458862 
	C141.820236,208.064667 128.336655,209.611771 116.409981,216.907028 
	C107.048515,222.633209 102.135551,231.801529 104.704285,242.485077 
	C107.694778,254.922791 111.014374,267.350647 115.276833,279.398682 
	C123.928810,303.853882 134.811630,327.096649 153.098648,346.285126 
	C172.190796,366.318451 195.237335,380.280365 220.127213,391.517090 
	C225.810577,394.082855 232.064224,395.572784 238.198990,396.888275 
	C242.610168,397.834198 247.675003,397.548828 250.208954,393.193970 
	C252.739029,388.845734 254.292130,383.845398 255.658478,378.958954 
	C256.027374,377.639709 254.604919,374.938690 253.257935,374.154266 
	C236.254913,364.252594 222.042435,350.913971 207.602997,337.807556 
	C192.606125,324.195129 179.632507,308.811920 167.841614,292.455597 
	C162.199783,284.629272 162.931168,276.028687 168.408478,268.721527 
	C172.343430,263.472015 178.123489,262.009247 184.132614,261.043121 
	C200.934433,258.341827 217.325592,261.193817 234.485107,264.920258 
M727.452393,144.079239 
	C730.788086,137.059250 734.123840,130.039261 738.151489,121.563263 
	C734.838928,122.015335 731.699707,121.534264 729.912964,122.866692 
	C725.451843,126.193504 720.417664,129.655350 717.729187,134.290253 
	C708.817383,149.653793 700.539490,165.408844 692.587952,181.298752 
	C684.691467,197.078735 687.207764,212.647003 695.168396,227.732437 
	C695.789673,228.909760 696.917419,230.042572 696.981567,231.240402 
	C697.084900,233.171005 697.104431,235.695816 695.996704,236.900818 
	C695.216614,237.749390 692.009338,237.492615 690.761780,236.558899 
	C687.864136,234.390259 685.436157,231.570114 682.931030,228.907516 
	C680.259766,226.068298 677.718750,223.106537 675.103943,220.179398 
	C673.898438,221.096741 673.332642,221.450180 672.865112,221.904678 
	C672.391846,222.364792 671.902893,222.868698 671.613708,223.449448 
	C664.810791,237.111145 658.767273,250.825989 668.727966,265.651733 
	C669.931580,267.443176 670.751648,269.500580 672.015076,271.242126 
	C680.128601,282.426147 688.115723,293.712341 696.597046,304.612823 
	C699.270691,308.049072 703.155945,310.670715 706.843323,313.130432 
	C708.441345,314.196472 711.424377,314.856171 712.952087,314.078156 
	C720.950928,310.004608 728.684753,305.410736 736.598877,300.948029 
	C732.357849,294.784943 728.691040,289.734558 725.371399,284.465424 
	C724.355530,282.852875 724.292297,280.640137 723.792786,278.702271 
	C725.936646,278.192261 728.275391,276.852020 730.193726,277.302399 
	C746.978882,281.242981 763.940247,280.821655 780.920898,279.687408 
	C787.907654,279.220673 794.852234,278.122437 801.816040,277.311401 
	C801.949158,276.710022 802.082275,276.108643 802.215393,275.507233 
	C800.495300,274.537872 798.876099,273.272339 797.038940,272.647064 
	C784.749756,268.464539 772.395752,264.472656 760.098877,260.312439 
	C748.362732,256.341980 736.995422,251.685455 728.088318,242.554520 
	C726.284302,240.705246 723.215881,239.586685 722.316406,237.460373 
	C720.326233,232.755203 718.871826,227.702408 718.029907,222.652832 
	C713.561340,195.851151 716.794678,169.887756 727.452393,144.079239 
M510.348816,319.106262 
	C504.130371,317.931915 497.911957,316.757599 491.177582,315.485840 
	C491.177582,319.769470 491.123810,323.076569 491.192657,326.381134 
	C491.261993,329.709381 491.244873,333.059326 491.627960,336.357666 
	C493.068176,348.757599 493.123596,348.751160 481.319489,351.983948 
	C474.520905,353.845886 467.857941,350.866608 465.607208,344.187988 
	C463.924591,339.195221 462.581482,333.882599 462.350006,328.656494 
	C462.037567,321.602020 462.936676,314.493927 463.268402,308.296509 
	C459.623810,307.127777 455.375916,306.675598 452.293640,304.540619 
	C448.661194,302.024567 446.121552,302.831970 444.252930,305.665466 
	C441.723755,309.500580 439.542908,313.698853 437.992371,318.021057 
	C433.209625,331.353271 433.466003,345.154694 434.988373,358.997711 
	C437.569885,382.471191 443.876251,404.316467 461.525421,421.452301 
	C467.718689,427.465424 476.593384,428.911316 484.445374,424.067352 
	C481.983002,419.439056 479.338348,414.845093 477.054657,410.078217 
	C474.330780,404.392487 471.353882,398.730225 469.525299,392.740692 
	C467.685242,386.713745 471.653046,382.841400 477.810669,384.168579 
	C483.314636,385.354858 488.876007,386.724243 494.026031,388.918640 
	C496.706879,390.060944 498.789337,392.977173 500.695618,395.437958 
	C501.970306,397.083405 502.226196,399.480804 503.340790,401.294098 
	C507.872742,408.667053 512.507080,415.979279 517.262695,423.209351 
	C517.809692,424.040924 519.409790,424.719696 520.422241,424.603424 
	C523.386719,424.263031 526.353149,423.665710 529.222839,422.836792 
	C533.691284,421.546082 534.960083,418.884460 533.343384,414.461304 
	C531.114258,408.362610 528.671631,402.341003 526.493042,396.224915 
	C518.233276,373.037109 511.908386,349.479156 512.774597,324.523041 
	C512.830566,322.912201 511.602692,321.256836 510.348816,319.106262 
M683.209839,377.530731 
	C681.162537,378.931824 679.291138,380.794556 677.037231,381.653015 
	C667.895874,385.134644 658.921570,388.370667 650.206177,379.803711 
	C646.272400,375.936920 640.764099,373.766327 634.728760,374.728455 
	C634.728760,376.354706 634.745728,377.669525 634.726074,378.983826 
	C634.586426,388.326843 631.377258,396.137817 622.531677,400.249115 
	C616.933411,402.851105 611.444458,403.844269 605.328369,399.443359 
	C600.679749,396.098450 594.290039,395.173401 588.067078,392.954956 
	C587.691528,408.154297 579.866638,416.439240 567.313660,421.057190 
	C562.811646,422.713379 557.986572,423.893402 553.955078,426.350708 
	C542.418396,433.382599 529.450989,435.498627 516.599487,437.870239 
	C505.868774,439.850464 494.974854,440.946411 484.128723,442.437317 
	C486.649597,451.608246 487.712036,452.899414 493.495667,451.715393 
	C514.678894,447.378845 536.017822,443.591309 556.920532,438.147247 
	C584.913086,430.856750 612.016724,420.905945 638.332458,408.631378 
	C658.644409,399.157166 678.238831,388.920593 695.595032,374.533478 
	C711.360657,361.464813 719.381714,343.136444 729.686707,326.331512 
	C730.277344,325.368378 730.078491,323.921143 730.292175,322.372925 
	C723.218384,323.826294 716.658142,325.174133 709.068970,326.733398 
	C714.109375,331.770325 717.331970,336.911346 714.039490,342.337860 
	C709.961548,349.058746 704.698547,355.100555 699.602295,361.144592 
	C697.476807,363.665314 694.471924,363.572266 691.394409,361.884552 
	C689.454834,360.820862 687.065979,360.576355 683.824280,359.669373 
	C686.586365,366.477722 686.658813,371.788605 683.209839,377.530731 
M271.329437,315.114502 
	C266.400757,314.388306 261.490692,313.478912 256.539276,312.976868 
	C248.114914,312.122650 248.114288,312.229218 249.030334,320.809296 
	C249.073669,321.215179 248.650604,321.670837 247.801636,323.454346 
	C245.225174,320.994171 241.847336,319.249176 240.977951,316.661438 
	C238.356750,308.859528 230.904999,308.455688 225.310455,305.241425 
	C224.524979,304.790131 223.201447,305.275330 221.454224,305.359436 
	C222.405685,310.033997 222.978424,314.313416 224.166092,318.414764 
	C228.124939,332.085571 235.085175,342.631531 251.184509,343.121277 
	C252.166214,343.151093 253.128220,343.594360 254.115311,343.717468 
	C264.220581,344.977722 274.329132,346.211517 284.488373,347.459045 
	C281.337463,336.922729 278.514587,327.211151 275.434631,317.581757 
	C275.106781,316.556702 273.275269,316.012573 271.329437,315.114502 
M742.477112,238.001175 
	C745.399780,239.775543 748.322449,241.549927 752.148621,243.872849 
	C749.537964,226.175568 743.633484,210.718353 737.826233,195.248474 
	C737.464905,194.285934 735.737427,193.836258 733.345764,192.328674 
	C733.125244,202.825409 733.402283,211.948853 732.603821,220.977203 
	C731.894409,228.998779 734.627930,234.375229 742.477112,238.001175 
M741.953796,288.066589 
	C740.050964,287.745880 738.148132,287.425171 734.978027,286.890900 
	C737.000977,290.720276 738.489624,293.538239 739.978271,296.356201 
	C740.515625,296.273987 741.052979,296.191742 741.590332,296.109528 
	C741.935364,293.503540 742.280334,290.897552 741.953796,288.066589 
M576.797058,383.369598 
	C576.747131,383.728424 576.697205,384.087250 576.647278,384.446075 
	C576.903076,384.446045 577.158875,384.446014 577.414734,384.445984 
	C577.377563,384.085602 577.340393,383.725250 576.797058,383.369598 
z"/>
<path fill="#186C9C" opacity="1.000000" stroke="none" 
	d="
M248.443359,205.531311 
	C227.597076,196.976562 206.189850,192.060181 184.289459,189.468765 
	C160.156754,186.613235 136.785461,191.304672 113.939537,198.546005 
	C100.744171,202.728470 94.075256,213.480286 91.055977,226.157028 
	C87.571091,240.788635 86.377884,255.861816 88.763969,270.760254 
	C91.754791,289.434570 99.746475,306.182037 110.621086,321.657471 
	C130.199158,349.518585 151.921814,375.154968 180.990265,393.815155 
	C198.671478,405.165405 217.417343,413.955200 237.774536,418.978668 
	C248.605774,421.651459 253.992584,429.517639 259.936035,439.109863 
	C257.125397,438.327637 255.444824,437.870087 253.770020,437.392273 
	C226.314560,429.559296 199.773026,419.414337 174.421005,406.213135 
	C142.927658,389.814117 114.633774,369.305084 92.286049,341.410828 
	C72.111198,316.228729 60.095871,287.846985 61.094898,255.019928 
	C61.998390,225.332001 72.577316,199.120392 91.640320,176.537613 
	C99.994583,166.640839 109.529091,157.742508 118.483109,148.348328 
	C120.661568,146.062790 122.865486,145.558762 126.054474,146.450912 
	C134.536865,148.823975 143.109894,150.935364 151.742157,152.679214 
	C155.128372,153.363297 158.768341,152.791214 162.144592,152.791214 
	C160.451981,143.556427 159.130493,135.228851 157.334366,127.004944 
	C156.396561,122.711052 157.103683,120.255562 161.305542,117.868790 
	C199.885483,95.954323 241.162674,81.369949 284.367065,71.923691 
	C337.456360,60.316170 391.158783,56.949738 445.334778,60.165871 
	C447.789978,60.311626 450.233612,60.652943 452.942383,60.929714 
	C452.548676,67.223557 451.732422,73.181595 451.902130,79.111412 
	C452.206696,89.751221 452.920258,100.389748 453.825409,110.997871 
	C454.332184,116.937607 458.936646,119.272148 464.284760,116.362823 
	C491.026550,101.815514 520.416992,95.171806 549.533386,87.786247 
	C556.748901,85.956009 564.281250,85.299408 571.704712,84.410500 
	C573.929443,84.144104 576.399841,84.554123 578.553101,85.269760 
	C617.861755,98.333832 654.862793,115.883568 687.552979,141.733353 
	C689.616516,143.365082 691.598816,145.099426 693.606018,146.775253 
	C690.184021,152.954712 686.740479,158.631424 683.819397,164.565353 
	C678.408264,175.557953 674.811829,187.102844 674.125305,199.456589 
	C674.041321,200.967621 673.365417,202.757339 672.354431,203.858215 
	C658.726746,218.697693 650.436157,236.309967 645.183716,255.533997 
	C645.008240,256.176361 644.824036,256.823700 644.734558,257.481049 
	C643.871765,263.823517 640.507141,266.404785 633.983704,268.191101 
	C622.199890,271.417786 610.712402,276.160522 599.667419,281.452240 
	C594.788452,283.789825 591.576721,283.202393 587.406799,280.982086 
	C582.180664,278.199371 576.783264,275.624756 571.213013,273.660095 
	C569.124756,272.923553 565.853210,273.390015 563.959351,274.609589 
	C553.153198,281.568237 544.657104,290.895599 537.780518,301.715149 
	C536.618896,303.542786 535.923279,305.242432 532.863159,304.504791 
	C512.808838,299.670624 492.690063,295.103973 472.595337,290.437103 
	C471.969971,290.291901 471.377014,290.007263 470.811096,289.802856 
	C473.359558,263.740051 473.415771,237.861923 470.009766,212.039825 
	C469.292938,206.605316 467.629547,201.296249 466.901764,195.862473 
	C465.569855,185.918106 459.010437,180.955765 450.200928,179.182739 
	C440.452362,177.220703 430.394775,175.124344 420.568207,175.514694 
	C382.188354,177.039337 345.938507,186.705276 312.925110,206.924026 
	C305.641235,211.384949 298.899933,216.541199 295.361328,224.835129 
	C294.682800,226.425415 293.113373,227.635574 292.646027,228.194519 
	C277.675690,220.509537 263.235687,213.096771 248.443359,205.531311 
M615.403320,214.971863 
	C614.260376,206.587646 613.038147,198.212585 612.067871,189.808456 
	C611.935791,188.664429 612.774658,186.607040 613.654480,186.276001 
	C619.891846,183.929123 626.225525,181.926193 633.069641,188.942413 
	C630.425232,189.440887 628.060547,190.095169 625.658142,190.293610 
	C621.414062,190.644165 620.524048,193.047638 621.134827,196.736328 
	C621.812805,200.830704 622.669678,204.928757 622.897034,209.055618 
	C623.154114,213.721573 626.227966,215.833969 629.874451,215.896530 
	C638.262207,216.040405 646.202576,214.349869 652.611389,208.000381 
	C655.767944,204.873047 659.378113,201.746796 663.388794,200.062836 
	C667.670593,198.265060 668.878357,195.472717 668.756836,191.614975 
	C668.495056,183.307053 668.054749,175.002090 667.532043,166.705719 
	C666.891663,156.542587 662.058472,149.319397 652.566589,145.111877 
	C646.181580,142.281555 640.079895,138.818405 633.791138,135.762512 
	C627.551025,132.730270 621.795593,130.926529 614.024719,132.654190 
	C595.383179,136.798615 576.292969,138.932343 557.372070,141.799942 
	C555.808350,142.036942 553.946838,142.148773 552.579346,141.531235 
	C545.660217,138.406631 539.048828,134.498276 531.947021,131.917343 
	C527.447754,130.282211 522.281372,129.994339 517.410522,129.974167 
	C507.970886,129.935028 499.790009,134.339844 491.448090,138.172409 
	C486.479431,140.455185 484.499603,143.791183 485.117859,149.210541 
	C487.284668,168.204193 489.190338,187.227676 491.363098,206.220612 
	C492.422699,215.482483 493.630554,224.739609 495.184723,233.928955 
	C496.500336,241.707779 497.776733,242.913467 505.394562,241.950378 
	C522.521362,239.785110 539.629150,237.368042 556.648621,234.486374 
	C570.057556,232.216003 583.358398,229.256073 596.635437,226.281952 
	C602.267822,225.020279 607.727417,222.972885 613.244263,221.215820 
	C616.008423,220.335480 616.732483,218.414734 615.403320,214.971863 
M225.641998,103.041328 
	C213.115128,103.739296 203.434509,109.338417 196.806061,120.002090 
	C193.616898,125.132759 194.574783,127.865715 199.728516,130.278366 
	C200.955917,130.852951 201.966827,132.203934 202.724518,133.417984 
	C208.531448,142.722504 214.198807,152.114304 220.028625,161.404236 
	C221.868240,164.335678 223.825302,167.277496 226.216568,169.740921 
	C227.306244,170.863495 229.619843,171.367981 231.312607,171.245377 
	C245.292786,170.232986 255.567337,161.890915 265.085266,152.864670 
	C268.136414,149.971130 270.473328,144.803223 270.573120,140.614807 
	C270.832794,129.715302 266.933685,119.801628 257.804626,113.260155 
	C248.607224,106.669739 238.037628,103.185501 225.641998,103.041328 
M295.505188,92.067787 
	C289.902161,93.302330 284.241364,94.337219 278.741943,95.929604 
	C277.555328,96.273193 276.233826,98.605873 276.193817,100.055977 
	C275.932129,109.544792 275.738586,119.052681 276.087585,128.533539 
	C276.250610,132.961441 277.128174,137.558060 278.742310,141.661011 
	C279.644073,143.953156 282.817932,147.003998 284.793030,146.881927 
	C289.082886,146.616791 293.260468,144.534729 297.699432,143.127136 
	C296.536102,139.771759 295.072174,136.880051 294.645203,133.842575 
	C294.367798,131.869110 294.963257,129.037750 296.290009,127.725639 
	C299.132812,124.914238 308.268463,126.360001 310.795807,129.581741 
	C313.336273,132.820267 315.757416,136.152435 318.212006,139.418488 
	C321.704590,138.006699 324.757416,136.772659 328.569031,135.231903 
	C327.339722,132.659134 326.393555,130.255020 325.103485,128.052261 
	C319.556000,118.580238 313.534363,109.364166 308.419586,99.667618 
	C304.656952,92.534431 304.361755,91.748207 295.505188,92.067787 
M415.092529,81.114815 
	C412.777863,80.922852 410.460693,80.566650 408.149445,80.601227 
	C406.788239,80.621590 404.971893,80.825134 404.154846,81.693741 
	C398.420593,87.789536 393.129089,94.293259 391.560760,102.815613 
	C390.123230,110.627274 391.027191,118.462944 396.402069,124.434547 
	C403.082886,131.857071 417.176605,130.812637 423.739075,123.220497 
	C428.113922,118.159233 428.043518,111.735512 423.163513,107.134605 
	C418.795074,103.016014 414.050781,99.332787 407.279633,100.978340 
	C408.217255,96.270798 408.243713,96.297142 415.763123,88.743706 
	C418.107971,86.388260 420.379395,83.850601 415.092529,81.114815 
M351.249695,99.529861 
	C358.541077,98.158241 360.098755,95.482353 358.377106,86.747124 
	C347.913330,88.143608 337.439117,89.721024 326.919708,90.892883 
	C317.180939,91.977776 316.621216,92.589394 319.688690,101.817856 
	C319.836334,102.262123 320.179047,102.641541 320.459686,103.097977 
	C320.977203,103.097977 321.455322,103.124985 321.929626,103.094025 
	C333.506531,102.338356 333.923859,102.964790 337.320679,114.132370 
	C339.276489,120.562386 342.450226,126.621948 345.138550,132.997269 
	C347.879059,132.250885 349.758270,131.652237 351.676605,131.232712 
	C357.722992,129.910492 357.803009,129.382294 355.573395,123.425735 
	C353.253326,117.227547 351.339539,110.864822 349.560883,104.486809 
	C349.199036,103.189400 350.230072,101.503555 351.249695,99.529861 
z"/>
<path fill="#030303" opacity="1.000000" stroke="none" 
	d="
M300.813873,273.059509 
	C306.006744,262.005768 311.031189,251.327362 316.267609,240.753937 
	C317.117065,239.038727 318.754852,237.603790 320.283936,236.351562 
	C350.607513,211.518753 385.365967,197.837173 424.510803,196.274780 
	C430.938934,196.018219 437.587280,199.348358 443.970734,201.503967 
	C445.277618,201.945328 446.496155,204.484848 446.669922,206.169189 
	C449.195038,230.645660 445.605377,254.257812 436.648041,277.170746 
	C431.680969,289.876556 426.472687,302.577271 422.834869,315.685944 
	C419.796936,326.633118 418.885925,338.170502 417.095398,349.066681 
	C393.624420,337.783997 372.642853,283.948547 402.789520,237.904282 
	C401.469086,238.050079 400.024780,237.768463 399.269043,238.362656 
	C393.136932,243.183914 385.707794,247.155334 381.348083,253.287094 
	C365.750092,275.224945 357.576416,299.630524 363.722382,326.773132 
	C368.006714,345.694031 377.487244,362.376617 389.229309,377.773071 
	C408.816406,403.456055 428.715820,428.914917 447.683563,455.048920 
	C454.750397,464.785675 459.577606,476.149078 465.411804,486.778564 
	C466.990601,489.655090 466.223022,491.619568 463.351044,493.327911 
	C457.934113,496.549957 452.320862,498.533386 445.898590,498.455414 
	C426.305542,498.217468 406.987061,495.822296 388.057465,490.857483 
	C372.482971,486.772675 359.146149,477.980743 346.383911,468.662323 
	C333.895935,459.544098 321.772095,449.799011 310.332214,439.400757 
	C287.957581,419.063416 285.309021,398.626617 290.185638,371.545929 
	C292.935272,375.751312 295.162872,380.189392 298.322723,383.815033 
	C313.053864,400.717590 330.618622,414.048096 350.695831,424.019226 
	C361.430023,429.350220 372.229980,434.551697 383.063141,439.678802 
	C386.202606,441.164642 389.493500,442.458771 392.851440,443.288574 
	C394.108185,443.599091 395.753571,442.337067 397.221741,441.792023 
	C396.671326,440.383636 396.537872,438.329865 395.507599,437.664246 
	C381.265076,428.462830 370.997864,415.127258 359.888794,402.831085 
	C341.636658,382.628510 322.460297,362.965851 312.369812,336.763977 
	C305.790222,319.678802 301.785583,302.062042 300.199463,283.880829 
	C299.900330,280.451599 300.520142,276.942200 300.813873,273.059509 
z"/>
<path fill="#030303" opacity="1.000000" stroke="none" 
	d="
M234.073090,264.837769 
	C217.325592,261.193817 200.934433,258.341827 184.132614,261.043121 
	C178.123489,262.009247 172.343430,263.472015 168.408478,268.721527 
	C162.931168,276.028687 162.199783,284.629272 167.841614,292.455597 
	C179.632507,308.811920 192.606125,324.195129 207.602997,337.807556 
	C222.042435,350.913971 236.254913,364.252594 253.257935,374.154266 
	C254.604919,374.938690 256.027374,377.639709 255.658478,378.958954 
	C254.292130,383.845398 252.739029,388.845734 250.208954,393.193970 
	C247.675003,397.548828 242.610168,397.834198 238.198990,396.888275 
	C232.064224,395.572784 225.810577,394.082855 220.127213,391.517090 
	C195.237335,380.280365 172.190796,366.318451 153.098648,346.285126 
	C134.811630,327.096649 123.928810,303.853882 115.276833,279.398682 
	C111.014374,267.350647 107.694778,254.922791 104.704285,242.485077 
	C102.135551,231.801529 107.048515,222.633209 116.409981,216.907028 
	C128.336655,209.611771 141.820236,208.064667 154.950928,208.458862 
	C172.835007,208.995804 191.364075,209.617416 208.322281,214.604156 
	C237.064499,223.056076 261.001862,239.354477 272.482208,269.166229 
	C272.661530,269.631836 272.883911,270.085907 273.009125,270.565491 
	C273.088226,270.868530 273.023895,271.208954 273.023895,271.856628 
	C269.985382,274.297180 266.779144,274.905060 262.648651,273.506165 
	C253.357254,270.359375 243.884216,267.748962 234.073090,264.837769 
z"/>
<path fill="#040404" opacity="1.000000" stroke="none" 
	d="
M727.309814,144.436951 
	C716.794678,169.887756 713.561340,195.851151 718.029907,222.652832 
	C718.871826,227.702408 720.326233,232.755203 722.316406,237.460373 
	C723.215881,239.586685 726.284302,240.705246 728.088318,242.554520 
	C736.995422,251.685455 748.362732,256.341980 760.098877,260.312439 
	C772.395752,264.472656 784.749756,268.464539 797.038940,272.647064 
	C798.876099,273.272339 800.495300,274.537872 802.215393,275.507233 
	C802.082275,276.108643 801.949158,276.710022 801.816040,277.311401 
	C794.852234,278.122437 787.907654,279.220673 780.920898,279.687408 
	C763.940247,280.821655 746.978882,281.242981 730.193726,277.302399 
	C728.275391,276.852020 725.936646,278.192261 723.792786,278.702271 
	C724.292297,280.640137 724.355530,282.852875 725.371399,284.465424 
	C728.691040,289.734558 732.357849,294.784943 736.598877,300.948029 
	C728.684753,305.410736 720.950928,310.004608 712.952087,314.078156 
	C711.424377,314.856171 708.441345,314.196472 706.843323,313.130432 
	C703.155945,310.670715 699.270691,308.049072 696.597046,304.612823 
	C688.115723,293.712341 680.128601,282.426147 672.015076,271.242126 
	C670.751648,269.500580 669.931580,267.443176 668.727966,265.651733 
	C658.767273,250.825989 664.810791,237.111145 671.613708,223.449448 
	C671.902893,222.868698 672.391846,222.364792 672.865112,221.904678 
	C673.332642,221.450180 673.898438,221.096741 675.103943,220.179398 
	C677.718750,223.106537 680.259766,226.068298 682.931030,228.907516 
	C685.436157,231.570114 687.864136,234.390259 690.761780,236.558899 
	C692.009338,237.492615 695.216614,237.749390 695.996704,236.900818 
	C697.104431,235.695816 697.084900,233.171005 696.981567,231.240402 
	C696.917419,230.042572 695.789673,228.909760 695.168396,227.732437 
	C687.207764,212.647003 684.691467,197.078735 692.587952,181.298752 
	C700.539490,165.408844 708.817383,149.653793 717.729187,134.290253 
	C720.417664,129.655350 725.451843,126.193504 729.912964,122.866692 
	C731.699707,121.534264 734.838928,122.015335 738.151489,121.563263 
	C734.123840,130.039261 730.788086,137.059250 727.309814,144.436951 
z"/>
<path fill="#040404" opacity="1.000000" stroke="none" 
	d="
M510.660400,319.364197 
	C511.602692,321.256836 512.830566,322.912201 512.774597,324.523041 
	C511.908386,349.479156 518.233276,373.037109 526.493042,396.224915 
	C528.671631,402.341003 531.114258,408.362610 533.343384,414.461304 
	C534.960083,418.884460 533.691284,421.546082 529.222839,422.836792 
	C526.353149,423.665710 523.386719,424.263031 520.422241,424.603424 
	C519.409790,424.719696 517.809692,424.040924 517.262695,423.209351 
	C512.507080,415.979279 507.872742,408.667053 503.340790,401.294098 
	C502.226196,399.480804 501.970306,397.083405 500.695618,395.437958 
	C498.789337,392.977173 496.706879,390.060944 494.026031,388.918640 
	C488.876007,386.724243 483.314636,385.354858 477.810669,384.168579 
	C471.653046,382.841400 467.685242,386.713745 469.525299,392.740692 
	C471.353882,398.730225 474.330780,404.392487 477.054657,410.078217 
	C479.338348,414.845093 481.983002,419.439056 484.445374,424.067352 
	C476.593384,428.911316 467.718689,427.465424 461.525421,421.452301 
	C443.876251,404.316467 437.569885,382.471191 434.988373,358.997711 
	C433.466003,345.154694 433.209625,331.353271 437.992371,318.021057 
	C439.542908,313.698853 441.723755,309.500580 444.252930,305.665466 
	C446.121552,302.831970 448.661194,302.024567 452.293640,304.540619 
	C455.375916,306.675598 459.623810,307.127777 463.268402,308.296509 
	C462.936676,314.493927 462.037567,321.602020 462.350006,328.656494 
	C462.581482,333.882599 463.924591,339.195221 465.607208,344.187988 
	C467.857941,350.866608 474.520905,353.845886 481.319489,351.983948 
	C493.123596,348.751160 493.068176,348.757599 491.627960,336.357666 
	C491.244873,333.059326 491.261993,329.709381 491.192657,326.381134 
	C491.123810,323.076569 491.177582,319.769470 491.177582,315.485840 
	C497.911957,316.757599 504.130371,317.931915 510.660400,319.364197 
z"/>
<path fill="#040404" opacity="1.000000" stroke="none" 
	d="
M571.346985,402.030762 
	C570.131836,402.620148 568.960083,403.332916 567.694092,403.777557 
	C562.223999,405.698761 556.762756,407.662811 551.214905,409.334259 
	C549.668091,409.800293 546.732605,409.894623 546.346069,409.157257 
	C545.303955,407.169189 545.083679,404.653351 544.945129,402.322754 
	C544.853088,400.772186 546.049072,399.018799 545.668152,397.630707 
	C540.292114,378.040924 542.079346,358.285522 544.245300,338.552612 
	C545.061279,331.118866 546.314087,323.701904 547.898132,316.392181 
	C549.559082,308.727234 553.666138,302.237701 559.384277,296.881866 
	C564.384094,292.198853 569.714600,291.487732 575.222412,295.315399 
	C588.265564,304.379700 600.803528,314.042175 607.863037,328.943542 
	C614.119934,342.150787 620.411560,355.343048 626.489868,368.632507 
	C628.266052,372.515961 628.886475,376.910767 625.899170,380.469086 
	C622.126221,384.963226 619.835632,391.286377 612.337280,391.722290 
	C608.369507,386.469330 604.337158,381.951569 601.523010,376.771942 
	C599.340881,372.755310 596.840942,371.051300 592.498596,371.619659 
	C586.276917,372.433960 579.968140,372.843750 573.873230,374.212830 
	C571.926636,374.650116 569.095703,377.630859 569.149353,379.371338 
	C569.382751,386.939880 570.531067,394.480194 571.346985,402.030762 
M584.870605,336.765289 
	C581.536194,332.435577 578.201782,328.105835 574.867371,323.776123 
	C574.215088,324.041626 573.562805,324.307098 572.910522,324.572601 
	C572.910522,334.702362 572.910522,344.832153 572.910522,354.707031 
	C578.529968,354.707031 584.209961,354.707031 591.261169,354.707031 
	C588.968018,348.276428 587.041687,342.874451 584.870605,336.765289 
z"/>
<path fill="#050505" opacity="1.000000" stroke="none" 
	d="
M667.041870,346.991943 
	C669.194702,353.098633 671.430420,359.177765 673.473572,365.320953 
	C675.019653,369.969788 672.635498,373.067474 667.746643,373.042694 
	C663.461182,373.020966 659.142456,373.308014 654.899719,372.867737 
	C650.740723,372.436157 647.603821,370.239807 645.771606,366.106476 
	C642.001038,357.600067 638.233459,349.066681 633.901306,340.841064 
	C627.797974,329.252319 621.305603,317.861542 614.704529,306.546600 
	C612.984497,303.598297 611.772461,300.537384 614.645996,298.552979 
	C626.275085,290.522095 636.980774,280.436707 652.375854,279.982391 
	C661.580322,279.710724 667.958679,284.320099 669.913330,293.336243 
	C670.960754,298.167572 671.661377,303.160522 671.744141,308.093506 
	C671.856567,314.795563 675.676208,317.928162 681.934326,320.089294 
	C691.121155,323.173615 697.726990,328.859100 703.954346,335.093292 
	C703.368591,344.630096 698.705017,349.662903 690.771240,348.310059 
	C684.439697,344.683075 678.790161,341.263702 672.953186,338.201752 
	C668.657532,335.948364 666.636780,336.889404 665.328735,341.084045 
	C665.291260,341.493805 665.253845,341.903534 665.266479,342.924683 
	C665.891724,344.688019 666.466797,345.839996 667.041870,346.991943 
M640.251953,310.121460 
	C643.271301,313.194489 646.343567,316.217896 649.291138,319.358307 
	C651.191345,321.382843 653.179993,321.621887 654.621582,319.279846 
	C658.922729,312.292084 660.358276,305.184448 650.747864,300.887451 
	C645.544556,298.560944 641.114014,300.085510 636.382751,306.031403 
	C637.482239,307.203583 638.604919,308.400421 640.251953,310.121460 
z"/>
<path fill="#1D6F9E" opacity="1.000000" stroke="none" 
	d="
M683.436768,377.221130 
	C686.658813,371.788605 686.586365,366.477722 683.824280,359.669373 
	C687.065979,360.576355 689.454834,360.820862 691.394409,361.884552 
	C694.471924,363.572266 697.476807,363.665314 699.602295,361.144592 
	C704.698547,355.100555 709.961548,349.058746 714.039490,342.337860 
	C717.331970,336.911346 714.109375,331.770325 709.068970,326.733398 
	C716.658142,325.174133 723.218384,323.826294 730.292175,322.372925 
	C730.078491,323.921143 730.277344,325.368378 729.686707,326.331512 
	C719.381714,343.136444 711.360657,361.464813 695.595032,374.533478 
	C678.238831,388.920593 658.644409,399.157166 638.332458,408.631378 
	C612.016724,420.905945 584.913086,430.856750 556.920532,438.147247 
	C536.017822,443.591309 514.678894,447.378845 493.495667,451.715393 
	C487.712036,452.899414 486.649597,451.608246 484.128723,442.437317 
	C494.974854,440.946411 505.868774,439.850464 516.599487,437.870239 
	C529.450989,435.498627 542.418396,433.382599 553.955078,426.350708 
	C557.986572,423.893402 562.811646,422.713379 567.313660,421.057190 
	C579.866638,416.439240 587.691528,408.154297 588.067078,392.954956 
	C594.290039,395.173401 600.679749,396.098450 605.328369,399.443359 
	C611.444458,403.844269 616.933411,402.851105 622.531677,400.249115 
	C631.377258,396.137817 634.586426,388.326843 634.726074,378.983826 
	C634.745728,377.669525 634.728760,376.354706 634.728760,374.728455 
	C640.764099,373.766327 646.272400,375.936920 650.206177,379.803711 
	C658.921570,388.370667 667.895874,385.134644 677.037231,381.653015 
	C679.291138,380.794556 681.162537,378.931824 683.436768,377.221130 
z"/>
<path fill="#060606" opacity="1.000000" stroke="none" 
	d="
M271.735382,315.179901 
	C273.275269,316.012573 275.106781,316.556702 275.434631,317.581757 
	C278.514587,327.211151 281.337463,336.922729 284.488373,347.459045 
	C274.329132,346.211517 264.220581,344.977722 254.115311,343.717468 
	C253.128220,343.594360 252.166214,343.151093 251.184509,343.121277 
	C235.085175,342.631531 228.124939,332.085571 224.166092,318.414764 
	C222.978424,314.313416 222.405685,310.033997 221.454224,305.359436 
	C223.201447,305.275330 224.524979,304.790131 225.310455,305.241425 
	C230.904999,308.455688 238.356750,308.859528 240.977951,316.661438 
	C241.847336,319.249176 245.225174,320.994171 247.801636,323.454346 
	C248.650604,321.670837 249.073669,321.215179 249.030334,320.809296 
	C248.114288,312.229218 248.114914,312.122650 256.539276,312.976868 
	C261.490692,313.478912 266.400757,314.388306 271.735382,315.179901 
z"/>
<path fill="#1E6F9E" opacity="1.000000" stroke="none" 
	d="
M742.166870,237.812653 
	C734.627930,234.375229 731.894409,228.998779 732.603821,220.977203 
	C733.402283,211.948853 733.125244,202.825409 733.345764,192.328674 
	C735.737427,193.836258 737.464905,194.285934 737.826233,195.248474 
	C743.633484,210.718353 749.537964,226.175568 752.148621,243.872849 
	C748.322449,241.549927 745.399780,239.775543 742.166870,237.812653 
z"/>
<path fill="#E9E9E9" opacity="1.000000" stroke="none" 
	d="
M571.700806,401.929565 
	C570.531067,394.480194 569.382751,386.939880 569.149353,379.371338 
	C569.095703,377.630859 571.926636,374.650116 573.873230,374.212830 
	C579.968140,372.843750 586.276917,372.433960 592.498596,371.619659 
	C596.840942,371.051300 599.340881,372.755310 601.523010,376.771942 
	C604.337158,381.951569 608.369507,386.469330 611.949463,391.601440 
	C610.871155,391.595734 609.234558,391.630890 608.650757,390.864288 
	C605.453430,386.665833 602.740662,382.083466 599.384155,378.027954 
	C597.878662,376.208954 595.239258,374.166382 593.154358,374.208374 
	C587.079346,374.330658 580.941406,375.084656 575.014832,376.419922 
	C573.346680,376.795776 571.247253,380.007690 571.211121,381.953369 
	C571.116943,387.028412 572.130615,392.116669 572.537109,397.212830 
	C572.658020,398.728882 572.230774,400.288605 571.700806,401.929565 
z"/>
<path fill="#DDDDDD" opacity="1.000000" stroke="none" 
	d="
M703.999878,334.651184 
	C697.726990,328.859100 691.121155,323.173615 682.289795,320.102539 
	C685.265442,320.560486 688.551758,321.082947 691.730957,321.983429 
	C694.667847,322.815155 697.445251,324.201324 700.372437,325.077667 
	C705.531921,326.622284 703.472351,330.911285 703.999878,334.651184 
z"/>
<path fill="#C8C8C8" opacity="1.000000" stroke="none" 
	d="
M665.675842,341.028076 
	C666.636780,336.889404 668.657532,335.948364 672.953186,338.201752 
	C678.790161,341.263702 684.439697,344.683075 690.396729,348.206146 
	C686.747498,347.051514 682.773926,345.853882 679.029114,344.152588 
	C676.560059,343.030853 674.591064,340.640472 672.074097,339.850189 
	C670.344971,339.307281 668.059631,340.535553 665.675842,341.028076 
z"/>
<path fill="#3D83AB" opacity="1.000000" stroke="none" 
	d="
M742.289551,288.179077 
	C742.280334,290.897552 741.935364,293.503540 741.590332,296.109528 
	C741.052979,296.191742 740.515625,296.273987 739.978271,296.356201 
	C738.489624,293.538239 737.000977,290.720276 734.978027,286.890900 
	C738.148132,287.425171 740.050964,287.745880 742.289551,288.179077 
z"/>
<path fill="#C8C8C8" opacity="1.000000" stroke="none" 
	d="
M667.267456,346.814514 
	C666.466797,345.839996 665.891724,344.688019 665.386780,343.213440 
	C666.135620,344.139587 666.814331,345.388336 667.267456,346.814514 
z"/>
<path fill="#E9E9E9" opacity="1.000000" stroke="none" 
	d="
M577.050171,383.367249 
	C577.340393,383.725250 577.377563,384.085602 577.414673,384.445984 
	C577.158875,384.446014 576.903076,384.446045 576.647339,384.446075 
	C576.697205,384.087250 576.747131,383.728424 577.050171,383.367249 
z"/>
<path fill="#F8FAFC" opacity="1.000000" stroke="none" 
	d="
M615.547974,215.367676 
	C616.732483,218.414734 616.008423,220.335480 613.244263,221.215820 
	C607.727417,222.972885 602.267822,225.020279 596.635437,226.281952 
	C583.358398,229.256073 570.057556,232.216003 556.648621,234.486374 
	C539.629150,237.368042 522.521362,239.785110 505.394562,241.950378 
	C497.776733,242.913467 496.500336,241.707779 495.184723,233.928955 
	C493.630554,224.739609 492.422699,215.482483 491.363098,206.220612 
	C489.190338,187.227676 487.284668,168.204193 485.117859,149.210541 
	C484.499603,143.791183 486.479431,140.455185 491.448090,138.172409 
	C499.790009,134.339844 507.970886,129.935028 517.410522,129.974167 
	C522.281372,129.994339 527.447754,130.282211 531.947021,131.917343 
	C539.048828,134.498276 545.660217,138.406631 552.579346,141.531235 
	C553.946838,142.148773 555.808350,142.036942 557.372070,141.799942 
	C576.292969,138.932343 595.383179,136.798615 614.024719,132.654190 
	C621.795593,130.926529 627.551025,132.730270 633.791138,135.762512 
	C640.079895,138.818405 646.181580,142.281555 652.566589,145.111877 
	C662.058472,149.319397 666.891663,156.542587 667.532043,166.705719 
	C668.054749,175.002090 668.495056,183.307053 668.756836,191.614975 
	C668.878357,195.472717 667.670593,198.265060 663.388794,200.062836 
	C659.378113,201.746796 655.767944,204.873047 652.611389,208.000381 
	C646.202576,214.349869 638.262207,216.040405 629.874451,215.896530 
	C626.227966,215.833969 623.154114,213.721573 622.897034,209.055618 
	C622.669678,204.928757 621.812805,200.830704 621.134827,196.736328 
	C620.524048,193.047638 621.414062,190.644165 625.658142,190.293610 
	C628.060547,190.095169 630.425232,189.440887 633.069641,188.942413 
	C626.225525,181.926193 619.891846,183.929123 613.654480,186.276001 
	C612.774658,186.607040 611.935791,188.664429 612.067871,189.808456 
	C613.038147,198.212585 614.260376,206.587646 615.547974,215.367676 
M566.756165,202.838516 
	C567.579468,203.874786 568.541382,205.886063 569.204102,205.791870 
	C574.169312,205.086212 579.075439,203.964844 583.438477,203.086639 
	C583.635315,199.365723 583.793091,196.383759 584.649353,193.138062 
	C585.016907,193.464371 585.384521,193.790680 585.747681,194.925766 
	C586.211548,197.098083 586.675415,199.270401 587.385620,202.011246 
	C587.591736,202.024918 587.797791,202.038589 588.862915,202.171066 
	C592.555969,201.921356 596.248962,201.671646 599.953247,201.999680 
	C599.981384,202.384140 600.009460,202.768600 599.373657,203.567734 
	C595.578918,204.328156 591.784241,205.088577 587.822815,205.882385 
	C588.731323,210.686874 589.518188,214.848175 590.290405,218.932053 
	C602.279968,219.693207 606.326965,215.517761 604.719299,204.356827 
	C604.602417,203.545792 604.326050,202.757751 604.092590,202.007645 
	C604.092590,202.007645 604.187012,202.074310 604.282532,201.129868 
	C604.366882,199.325180 604.484009,197.521301 604.529480,195.715637 
	C604.689209,189.380249 602.026611,187.343597 595.867859,189.141617 
	C592.886597,190.011978 589.941528,191.006393 586.257019,191.917130 
	C585.492004,192.421036 584.726929,192.924942 583.115112,193.568222 
	C577.050293,194.708008 570.985413,195.847794 564.221497,196.979996 
	C563.756775,197.014267 563.292114,197.048538 562.037231,197.123352 
	C556.374817,198.167114 550.712402,199.210861 544.506470,200.354797 
	C545.252686,203.898926 545.884033,206.897354 546.620483,210.394928 
	C552.807556,209.140259 558.586365,207.968369 564.368408,206.795822 
	C564.277527,204.956299 564.205017,203.488266 564.770386,202.020676 
	C565.408203,202.029510 566.046082,202.038345 566.756165,202.838516 
M545.452515,216.390533 
	C545.002014,215.962585 544.497009,215.118683 544.109192,215.169449 
	C538.797241,215.864670 533.501404,216.683365 528.177246,217.475327 
	C529.105652,222.505829 529.866699,226.629333 530.691833,231.100296 
	C535.685364,230.120544 540.394958,229.303131 545.040405,228.212479 
	C546.248657,227.928818 547.256653,226.792084 548.885254,226.055252 
	C549.407410,226.096024 549.929504,226.136795 551.380005,226.278168 
	C558.329834,225.390518 565.493347,225.139786 571.091064,220.841965 
	C576.296875,220.841965 581.502686,220.841965 587.623901,220.841965 
	C586.550720,215.154709 585.746216,210.890976 584.877441,206.286926 
	C579.064270,207.381790 573.798645,208.373535 568.960388,209.284775 
	C568.960388,212.388885 568.960388,214.922760 567.990540,217.582108 
	C567.003296,215.214249 566.016113,212.846405 564.834473,210.012299 
	C559.902954,211.100021 554.771240,212.093384 549.746216,213.474808 
	C548.895325,213.708740 548.503418,215.612305 546.906494,216.896820 
	C546.574402,216.938843 546.242310,216.980865 545.452515,216.390533 
M643.182495,193.394730 
	C643.945801,195.833450 644.709167,198.272156 645.542480,200.934479 
	C648.584351,198.973236 651.077271,196.956345 653.898132,195.644974 
	C657.942017,193.765091 659.294067,191.396088 658.279846,186.763947 
	C657.557861,183.466568 656.447021,181.785004 653.239624,181.187836 
	C651.294189,180.825577 648.559021,180.658112 647.704956,179.381744 
	C646.234314,177.184082 645.954956,174.189255 645.175659,171.528976 
	C647.004089,171.057770 648.856018,170.135864 650.654968,170.229706 
	C652.893921,170.346481 655.089172,171.301865 658.221130,172.141037 
	C658.536194,167.715820 659.599121,163.631256 658.751709,159.991455 
	C658.344604,158.242737 654.322327,157.346680 651.949402,156.042221 
	C647.725525,153.720215 643.449707,151.484329 639.307983,149.023331 
	C634.118958,145.940002 629.043213,142.666061 623.885803,139.453964 
	C625.356445,151.447708 626.643127,163.137512 628.361572,174.763504 
	C628.644226,176.675812 630.451172,179.128937 632.194092,179.918823 
	C637.939148,182.522415 641.720032,186.412292 643.182495,193.394730 
M506.941956,221.650436 
	C519.166870,218.083725 531.391724,214.517014 543.971313,210.846802 
	C543.251587,207.694595 542.531067,204.539124 541.697510,200.888474 
	C531.519348,203.919174 521.741821,206.577316 512.143555,209.773636 
	C505.225922,212.077301 503.106018,216.928055 506.941956,221.650436 
M605.241028,148.826996 
	C605.241028,152.156693 605.241028,155.486404 605.241028,158.858566 
	C616.376099,157.848373 617.993164,155.410126 614.088013,146.440750 
	C611.399780,147.125900 608.693726,147.815552 605.241028,148.826996 
M530.407166,165.937485 
	C530.262817,164.046219 530.220154,162.169708 527.343018,162.920059 
	C524.352478,163.699966 521.308289,164.273804 517.998413,165.001297 
	C518.375732,167.954803 518.699219,170.487122 519.064026,173.342422 
	C522.087585,172.839508 524.500244,172.248291 526.942383,172.076721 
	C530.566223,171.822098 531.430359,169.963837 530.407166,165.937485 
M557.514832,154.073090 
	C555.041809,154.880524 552.568787,155.687943 549.922241,156.552017 
	C550.490723,159.532547 550.977844,162.086746 551.463867,164.635132 
	C563.231323,162.551147 563.555786,162.163513 561.098999,153.144608 
	C560.160156,153.387787 559.218140,153.631775 557.514832,154.073090 
M530.465271,192.048447 
	C531.828308,191.580917 533.191345,191.113373 534.741699,190.581573 
	C534.018860,187.807083 533.372253,185.324982 532.740906,182.901505 
	C520.973572,184.384674 520.030090,185.542480 523.587036,193.900925 
	C525.606873,193.336670 527.653137,192.765045 530.465271,192.048447 
M560.270569,175.916260 
	C557.917725,176.415512 555.564941,176.914764 553.042175,177.450073 
	C553.594482,180.320709 554.052551,182.701477 554.621948,185.660965 
	C558.581360,184.835922 562.201660,184.081543 566.244080,183.239212 
	C565.761353,180.267288 565.355835,177.770660 564.915771,175.061722 
	C563.297913,175.371170 562.188171,175.583435 560.270569,175.916260 
M616.119812,175.591751 
	C622.484375,172.765015 616.002808,168.696594 618.625488,164.522247 
	C614.112000,166.174362 611.206360,167.237946 608.398376,168.265778 
	C607.888489,176.597885 608.305115,177.030701 616.119812,175.591751 
M535.846313,164.958115 
	C536.111816,166.333679 536.377380,167.709259 536.740906,169.592422 
	C540.192627,168.599899 543.111694,167.760544 546.357788,166.827164 
	C545.819885,163.641541 545.368774,160.969971 544.896301,158.171585 
	C542.130798,158.912628 539.714600,159.168762 537.746338,160.244415 
	C536.683655,160.825165 536.386658,162.807144 535.846313,164.958115 
M544.139771,188.718613 
	C550.319336,187.067413 550.795837,185.543716 547.080505,178.874115 
	C544.302063,179.611023 541.483826,180.358521 538.120911,181.250458 
	C540.158020,184.042053 536.676941,189.577911 544.139771,188.718613 
M503.049225,173.976028 
	C506.004761,177.552826 509.621460,175.141800 512.000122,173.861938 
	C513.316223,173.153748 512.702820,168.859589 512.967590,166.093994 
	C503.040375,166.372009 502.821503,166.544922 503.049225,173.976028 
M576.015381,158.765961 
	C576.582153,156.125778 577.148987,153.485611 577.850708,150.216949 
	C573.199585,150.809662 570.023560,151.214401 566.490540,151.664642 
	C567.232239,154.858398 567.807129,157.333969 568.390991,159.848114 
	C570.978271,159.499557 573.093262,159.214615 576.015381,158.765961 
M572.515076,181.753021 
	C575.688110,181.104568 578.861145,180.456116 582.003845,179.813858 
	C580.975403,172.785645 580.975403,172.785645 577.704651,172.757797 
	C570.579651,172.697144 569.953796,173.612686 572.515076,181.753021 
M513.773254,187.560822 
	C510.873230,188.724411 505.618317,187.563629 506.391357,192.687210 
	C507.270203,198.512054 512.213623,195.644272 515.649963,195.608017 
	C516.208862,195.602112 516.761780,195.037827 518.076050,194.313660 
	C516.853699,191.920975 515.690979,189.645081 513.773254,187.560822 
M528.272034,138.098267 
	C528.020691,140.979034 527.769287,143.859802 527.464905,147.347656 
	C532.787048,146.344009 537.332703,145.486771 541.878418,144.629532 
	C541.891479,144.183823 541.904541,143.738098 541.917542,143.292389 
	C537.647522,141.526505 533.377502,139.760605 528.272034,138.098267 
M513.013245,233.179749 
	C512.305969,229.843933 511.598694,226.508118 510.855896,223.004715 
	C509.164673,223.560989 507.999298,223.793365 506.977753,224.310165 
	C504.463745,225.581985 504.577026,230.795151 507.189575,234.425568 
	C509.286041,237.338806 511.083832,235.849457 513.013245,233.179749 
M622.374695,154.560989 
	C622.290833,152.579727 622.424133,150.558823 622.071533,148.626602 
	C621.558716,145.816483 619.937073,144.688614 616.950989,146.239914 
	C617.400085,148.581558 617.471741,150.998947 618.408203,153.014511 
	C618.910706,154.095978 620.899841,154.486679 622.374695,154.560989 
M624.161499,166.648132 
	C623.161865,165.684509 622.162292,164.720886 621.162659,163.757263 
	C620.703186,164.119354 620.243774,164.481445 619.784302,164.843536 
	C620.269470,167.835617 620.754639,170.827698 621.239746,173.819794 
	C621.786499,173.897385 622.333313,173.974976 622.880066,174.052567 
	C623.310974,171.877060 623.741943,169.701569 624.161499,166.648132 
M650.455566,177.513443 
	C652.697388,178.185181 654.939270,178.856918 657.181091,179.528641 
	C657.529602,177.893372 657.878113,176.258087 658.527771,173.209885 
	C655.075073,174.838104 652.916626,175.855957 650.455566,177.513443 
z"/>
<path fill="#FAFCFD" opacity="1.000000" stroke="none" 
	d="
M226.100937,103.021912 
	C238.037628,103.185501 248.607224,106.669739 257.804626,113.260155 
	C266.933685,119.801628 270.832794,129.715302 270.573120,140.614807 
	C270.473328,144.803223 268.136414,149.971130 265.085266,152.864670 
	C255.567337,161.890915 245.292786,170.232986 231.312607,171.245377 
	C229.619843,171.367981 227.306244,170.863495 226.216568,169.740921 
	C223.825302,167.277496 221.868240,164.335678 220.028625,161.404236 
	C214.198807,152.114304 208.531448,142.722504 202.724518,133.417984 
	C201.966827,132.203934 200.955917,130.852951 199.728516,130.278366 
	C194.574783,127.865715 193.616898,125.132759 196.806061,120.002090 
	C203.434509,109.338417 213.115128,103.739296 226.100937,103.021912 
M231.607361,145.883621 
	C232.591110,147.620926 233.497528,149.407822 234.573639,151.085907 
	C237.421738,155.527298 240.828751,156.293121 245.042770,152.995667 
	C253.035889,146.741089 258.118195,132.143341 244.608719,123.644089 
	C238.418564,119.749672 231.563324,118.682121 224.486237,119.347427 
	C222.446884,119.539131 219.620636,120.839310 218.860580,122.440720 
	C218.130142,123.979713 219.123108,126.862762 220.205719,128.639053 
	C223.662537,134.310913 227.512939,139.742920 231.607361,145.883621 
z"/>
<path fill="#F8FAFC" opacity="1.000000" stroke="none" 
	d="
M295.964264,92.062805 
	C304.361755,91.748207 304.656952,92.534431 308.419586,99.667618 
	C313.534363,109.364166 319.556000,118.580238 325.103485,128.052261 
	C326.393555,130.255020 327.339722,132.659134 328.569031,135.231903 
	C324.757416,136.772659 321.704590,138.006699 318.212006,139.418488 
	C315.757416,136.152435 313.336273,132.820267 310.795807,129.581741 
	C308.268463,126.360001 299.132812,124.914238 296.290009,127.725639 
	C294.963257,129.037750 294.367798,131.869110 294.645203,133.842575 
	C295.072174,136.880051 296.536102,139.771759 297.699432,143.127136 
	C293.260468,144.534729 289.082886,146.616791 284.793030,146.881927 
	C282.817932,147.003998 279.644073,143.953156 278.742310,141.661011 
	C277.128174,137.558060 276.250610,132.961441 276.087585,128.533539 
	C275.738586,119.052681 275.932129,109.544792 276.193817,100.055977 
	C276.233826,98.605873 277.555328,96.273193 278.741943,95.929604 
	C284.241364,94.337219 289.902161,93.302330 295.964264,92.062805 
M293.749023,119.832520 
	C296.482971,119.940628 299.337250,120.540253 301.891541,119.914726 
	C302.912079,119.664803 304.278809,116.248802 303.740265,115.077713 
	C302.174835,111.673576 299.967499,108.462959 297.484467,105.640480 
	C296.672150,104.717117 293.680817,104.466080 292.666565,105.222458 
	C290.512573,106.828804 291.087280,116.897255 293.749023,119.832520 
z"/>
<path fill="#F8FBFC" opacity="1.000000" stroke="none" 
	d="
M415.512024,81.186844 
	C420.379395,83.850601 418.107971,86.388260 415.763123,88.743706 
	C408.243713,96.297142 408.217255,96.270798 407.279633,100.978340 
	C414.050781,99.332787 418.795074,103.016014 423.163513,107.134605 
	C428.043518,111.735512 428.113922,118.159233 423.739075,123.220497 
	C417.176605,130.812637 403.082886,131.857071 396.402069,124.434547 
	C391.027191,118.462944 390.123230,110.627274 391.560760,102.815613 
	C393.129089,94.293259 398.420593,87.789536 404.154846,81.693741 
	C404.971893,80.825134 406.788239,80.621590 408.149445,80.601227 
	C410.460693,80.566650 412.777863,80.922852 415.512024,81.186844 
M415.047241,112.642960 
	C412.512787,109.136696 409.230621,108.218552 405.556824,110.498062 
	C402.803650,112.206375 401.735840,115.349167 403.858765,117.740372 
	C405.531067,119.624039 408.827087,121.431442 411.096802,121.111092 
	C414.840668,120.582680 416.995972,117.596069 415.047241,112.642960 
z"/>
<path fill="#F8FBFC" opacity="1.000000" stroke="none" 
	d="
M350.934357,99.763321 
	C350.230072,101.503555 349.199036,103.189400 349.560883,104.486809 
	C351.339539,110.864822 353.253326,117.227547 355.573395,123.425735 
	C357.803009,129.382294 357.722992,129.910492 351.676605,131.232712 
	C349.758270,131.652237 347.879059,132.250885 345.138550,132.997269 
	C342.450226,126.621948 339.276489,120.562386 337.320679,114.132370 
	C333.923859,102.964790 333.506531,102.338356 321.929626,103.094025 
	C321.455322,103.124985 320.977203,103.097977 320.459686,103.097977 
	C320.179047,102.641541 319.836334,102.262123 319.688690,101.817856 
	C316.621216,92.589394 317.180939,91.977776 326.919708,90.892883 
	C337.439117,89.721024 347.913330,88.143608 358.377106,86.747124 
	C360.098755,95.482353 358.541077,98.158241 350.934357,99.763321 
z"/>
<path fill="#F7F7F7" opacity="1.000000" stroke="none" 
	d="
M584.992981,337.118896 
	C587.041687,342.874451 588.968018,348.276428 591.261169,354.707031 
	C584.209961,354.707031 578.529968,354.707031 572.910522,354.707031 
	C572.910522,344.832153 572.910522,334.702362 572.910522,324.572601 
	C573.562805,324.307098 574.215088,324.041626 574.867371,323.776123 
	C578.201782,328.105835 581.536194,332.435577 584.992981,337.118896 
z"/>
<path fill="#F5F5F5" opacity="1.000000" stroke="none" 
	d="
M639.989746,309.859375 
	C638.604919,308.400421 637.482239,307.203583 636.382751,306.031403 
	C641.114014,300.085510 645.544556,298.560944 650.747864,300.887451 
	C660.358276,305.184448 658.922729,312.292084 654.621582,319.279846 
	C653.179993,321.621887 651.191345,321.382843 649.291138,319.358307 
	C646.343567,316.217896 643.271301,313.194489 639.989746,309.859375 
z"/>
<path fill="#2271A0" opacity="1.000000" stroke="none" 
	d="
M643.051392,193.030365 
	C641.720032,186.412292 637.939148,182.522415 632.194092,179.918823 
	C630.451172,179.128937 628.644226,176.675812 628.361572,174.763504 
	C626.643127,163.137512 625.356445,151.447708 623.885803,139.453964 
	C629.043213,142.666061 634.118958,145.940002 639.307983,149.023331 
	C643.449707,151.484329 647.725525,153.720215 651.949402,156.042221 
	C654.322327,157.346680 658.344604,158.242737 658.751709,159.991455 
	C659.599121,163.631256 658.536194,167.715820 658.221130,172.141037 
	C655.089172,171.301865 652.893921,170.346481 650.654968,170.229706 
	C648.856018,170.135864 647.004089,171.057770 645.175659,171.528961 
	C645.954956,174.189255 646.234314,177.184082 647.704956,179.381744 
	C648.559021,180.658112 651.294189,180.825577 653.239624,181.187836 
	C656.447021,181.785004 657.557861,183.466568 658.279846,186.763947 
	C659.294067,191.396088 657.942017,193.765091 653.898132,195.644974 
	C651.077271,196.956345 648.584351,198.973236 645.542480,200.934479 
	C644.709167,198.272156 643.945801,195.833450 643.051392,193.030365 
M639.225952,156.339523 
	C637.919739,154.653854 636.613525,152.968170 635.307312,151.282501 
	C634.855835,151.619781 634.404297,151.957077 633.952820,152.294357 
	C634.125916,156.298920 633.745972,160.618759 639.715515,161.622345 
	C639.552124,160.012482 639.405884,158.570755 639.225952,156.339523 
M635.981934,173.335266 
	C637.182007,174.769577 638.382080,176.203888 639.582153,177.638214 
	C640.016357,177.276031 640.450500,176.913849 640.884705,176.551666 
	C640.092224,173.529785 641.915771,169.156052 636.172119,168.397400 
	C636.095947,169.888382 636.029236,171.193832 635.981934,173.335266 
M632.159912,166.048691 
	C631.794861,169.000412 631.429810,171.952148 631.064697,174.903885 
	C631.993713,174.905487 632.922729,174.907104 633.851746,174.908707 
	C633.539917,172.096588 633.228088,169.284470 632.159912,166.048691 
z"/>
<path fill="#20709F" opacity="1.000000" stroke="none" 
	d="
M506.544983,221.748199 
	C503.106018,216.928055 505.225922,212.077301 512.143555,209.773636 
	C521.741821,206.577316 531.519348,203.919174 541.697510,200.888474 
	C542.531067,204.539124 543.251587,207.694595 543.971313,210.846802 
	C531.391724,214.517014 519.166870,218.083725 506.544983,221.748199 
z"/>
<path fill="#1D6F9E" opacity="1.000000" stroke="none" 
	d="
M570.923767,219.722427 
	C565.493347,225.139786 558.329834,225.390518 550.953064,225.843323 
	C549.650513,222.520477 548.774963,219.632477 547.899414,216.744476 
	C548.503418,215.612305 548.895325,213.708740 549.746216,213.474808 
	C554.771240,212.093384 559.902954,211.100021 564.834473,210.012299 
	C566.016113,212.846405 567.003296,215.214249 568.480530,217.503357 
	C568.970520,217.424606 568.979187,217.493393 568.428711,217.528687 
	C568.253052,218.637894 568.627869,219.711807 569.002747,220.785736 
	C569.513977,220.189560 570.025208,219.593384 570.589417,219.089325 
	C570.750488,219.356277 570.844299,219.536606 570.923767,219.722427 
z"/>
<path fill="#2271A0" opacity="1.000000" stroke="none" 
	d="
M548.356628,226.047180 
	C547.256653,226.792084 546.248657,227.928818 545.040405,228.212479 
	C540.394958,229.303131 535.685364,230.120544 530.691833,231.100296 
	C529.866699,226.629333 529.105652,222.505829 528.177246,217.475327 
	C533.501404,216.683365 538.797241,215.864670 544.109192,215.169449 
	C544.497009,215.118683 545.002014,215.962585 545.661255,217.102600 
	C546.698853,220.558838 547.527771,223.303009 548.356628,226.047180 
z"/>
<path fill="#20709F" opacity="1.000000" stroke="none" 
	d="
M571.007446,220.282196 
	C570.844299,219.536606 570.750488,219.356277 570.415771,218.721497 
	C569.785767,218.005493 569.382446,217.749435 568.979187,217.493378 
	C568.979187,217.493393 568.970520,217.424606 568.965454,217.440613 
	C568.960388,214.922760 568.960388,212.388885 568.960388,209.284775 
	C573.798645,208.373535 579.064270,207.381790 584.877441,206.286926 
	C585.746216,210.890976 586.550720,215.154709 587.623901,220.841965 
	C581.502686,220.841965 576.296875,220.841965 571.007446,220.282196 
z"/>
<path fill="#2473A1" opacity="1.000000" stroke="none" 
	d="
M604.123779,201.959030 
	C604.326050,202.757751 604.602417,203.545792 604.719299,204.356827 
	C606.326965,215.517761 602.279968,219.693207 590.290405,218.932053 
	C589.518188,214.848175 588.731323,210.686874 587.822815,205.882385 
	C591.784241,205.088577 595.578918,204.328156 600.140259,203.366180 
	C601.979187,202.762741 603.051453,202.360886 604.123779,201.959030 
z"/>
<path fill="#1D6F9E" opacity="1.000000" stroke="none" 
	d="
M586.980103,191.944641 
	C589.941528,191.006393 592.886597,190.011978 595.867859,189.141617 
	C602.026611,187.343597 604.689209,189.380249 604.529480,195.715637 
	C604.484009,197.521301 604.366882,199.325180 603.823120,201.440063 
	C602.223145,201.640823 601.082581,201.531387 599.942017,201.421936 
	C596.248962,201.671646 592.555969,201.921356 588.395996,201.949890 
	C587.759216,201.378738 587.495972,201.283401 587.139282,201.442719 
	C586.675415,199.270401 586.211548,197.098083 586.037231,194.350586 
	C586.544617,193.165161 586.762329,192.554916 586.980103,191.944641 
z"/>
<path fill="#2271A0" opacity="1.000000" stroke="none" 
	d="
M564.132446,202.020233 
	C564.205017,203.488266 564.277527,204.956299 564.368408,206.795822 
	C558.586365,207.968369 552.807556,209.140259 546.620483,210.394928 
	C545.884033,206.897354 545.252686,203.898926 544.506470,200.354797 
	C550.712402,199.210861 556.374817,198.167114 562.507446,197.460464 
	C563.362610,199.205139 563.747498,200.612686 564.132446,202.020233 
z"/>
<path fill="#1E6F9E" opacity="1.000000" stroke="none" 
	d="
M583.950867,193.401779 
	C583.793091,196.383759 583.635315,199.365723 583.438477,203.086639 
	C579.075439,203.964844 574.169312,205.086212 569.204102,205.791870 
	C568.541382,205.886063 567.579468,203.874786 566.749512,202.099609 
	C566.135498,199.903000 565.528015,198.445297 564.920532,196.987579 
	C570.985413,195.847794 577.050293,194.708008 583.552734,193.486786 
	C583.990356,193.405365 583.950867,193.401779 583.950867,193.401779 
z"/>
<path fill="#2674A2" opacity="1.000000" stroke="none" 
	d="
M605.614380,148.666107 
	C608.693726,147.815552 611.399780,147.125900 614.088013,146.440750 
	C617.993164,155.410126 616.376099,157.848373 605.241028,158.858566 
	C605.241028,155.486404 605.241028,152.156693 605.614380,148.666107 
z"/>
<path fill="#2473A1" opacity="1.000000" stroke="none" 
	d="
M530.468750,166.358368 
	C531.430359,169.963837 530.566223,171.822098 526.942383,172.076721 
	C524.500244,172.248291 522.087585,172.839508 519.064026,173.342422 
	C518.699219,170.487122 518.375732,167.954803 517.998413,165.001297 
	C521.308289,164.273804 524.352478,163.699966 527.343018,162.920059 
	C530.220154,162.169708 530.262817,164.046219 530.468750,166.358368 
z"/>
<path fill="#2674A2" opacity="1.000000" stroke="none" 
	d="
M557.895508,153.974426 
	C559.218140,153.631775 560.160156,153.387787 561.098999,153.144608 
	C563.555786,162.163513 563.231323,162.551147 551.463867,164.635132 
	C550.977844,162.086746 550.490723,159.532547 549.922241,156.552017 
	C552.568787,155.687943 555.041809,154.880524 557.895508,153.974426 
z"/>
<path fill="#2473A1" opacity="1.000000" stroke="none" 
	d="
M530.082336,192.120926 
	C527.653137,192.765045 525.606873,193.336670 523.587036,193.900925 
	C520.030090,185.542480 520.973572,184.384674 532.740906,182.901505 
	C533.372253,185.324982 534.018860,187.807083 534.741699,190.581573 
	C533.191345,191.113373 531.828308,191.580917 530.082336,192.120926 
z"/>
<path fill="#2674A2" opacity="1.000000" stroke="none" 
	d="
M560.674561,175.855972 
	C562.188171,175.583435 563.297913,175.371170 564.915771,175.061722 
	C565.355835,177.770660 565.761353,180.267288 566.244080,183.239212 
	C562.201660,184.081543 558.581360,184.835922 554.621948,185.660965 
	C554.052551,182.701477 553.594482,180.320709 553.042175,177.450073 
	C555.564941,176.914764 557.917725,176.415512 560.674561,175.855972 
z"/>
<path fill="#2976A3" opacity="1.000000" stroke="none" 
	d="
M615.734619,175.678345 
	C608.305115,177.030701 607.888489,176.597885 608.398376,168.265778 
	C611.206360,167.237946 614.112000,166.174362 618.625488,164.522247 
	C616.002808,168.696594 622.484375,172.765015 615.734619,175.678345 
z"/>
<path fill="#2674A2" opacity="1.000000" stroke="none" 
	d="
M535.795288,164.557526 
	C536.386658,162.807144 536.683655,160.825165 537.746338,160.244415 
	C539.714600,159.168762 542.130798,158.912628 544.896301,158.171585 
	C545.368774,160.969971 545.819885,163.641541 546.357788,166.827164 
	C543.111694,167.760544 540.192627,168.599899 536.740906,169.592422 
	C536.377380,167.709259 536.111816,166.333679 535.795288,164.557526 
z"/>
<path fill="#2674A2" opacity="1.000000" stroke="none" 
	d="
M543.729187,188.817688 
	C536.676941,189.577911 540.158020,184.042053 538.120911,181.250458 
	C541.483826,180.358521 544.302063,179.611023 547.080505,178.874115 
	C550.795837,185.543716 550.319336,187.067413 543.729187,188.817688 
z"/>
<path fill="#2674A2" opacity="1.000000" stroke="none" 
	d="
M503.028748,173.553772 
	C502.821503,166.544922 503.040375,166.372009 512.967590,166.093994 
	C512.702820,168.859589 513.316223,173.153748 512.000122,173.861938 
	C509.621460,175.141800 506.004761,177.552826 503.028748,173.553772 
z"/>
<path fill="#2976A3" opacity="1.000000" stroke="none" 
	d="
M575.611816,158.847824 
	C573.093262,159.214615 570.978271,159.499557 568.390991,159.848114 
	C567.807129,157.333969 567.232239,154.858398 566.490540,151.664642 
	C570.023560,151.214401 573.199585,150.809662 577.850708,150.216949 
	C577.148987,153.485611 576.582153,156.125778 575.611816,158.847824 
z"/>
<path fill="#2674A2" opacity="1.000000" stroke="none" 
	d="
M572.134033,181.608490 
	C569.953796,173.612686 570.579651,172.697144 577.704651,172.757797 
	C580.975403,172.785645 580.975403,172.785645 582.003845,179.813858 
	C578.861145,180.456116 575.688110,181.104568 572.134033,181.608490 
z"/>
<path fill="#2976A3" opacity="1.000000" stroke="none" 
	d="
M514.150757,187.464996 
	C515.690979,189.645081 516.853699,191.920975 518.076050,194.313660 
	C516.761780,195.037827 516.208862,195.602112 515.649963,195.608017 
	C512.213623,195.644272 507.270203,198.512054 506.391357,192.687210 
	C505.618317,187.563629 510.873230,188.724411 514.150757,187.464996 
z"/>
<path fill="#2976A3" opacity="1.000000" stroke="none" 
	d="
M528.689758,138.046494 
	C533.377502,139.760605 537.647522,141.526505 541.917542,143.292389 
	C541.904541,143.738098 541.891479,144.183823 541.878418,144.629532 
	C537.332703,145.486771 532.787048,146.344009 527.464905,147.347656 
	C527.769287,143.859802 528.020691,140.979034 528.689758,138.046494 
z"/>
<path fill="#2976A3" opacity="1.000000" stroke="none" 
	d="
M512.915161,233.569427 
	C511.083832,235.849457 509.286041,237.338806 507.189575,234.425568 
	C504.577026,230.795151 504.463745,225.581985 506.977753,224.310165 
	C507.999298,223.793365 509.164673,223.560989 510.855896,223.004715 
	C511.598694,226.508118 512.305969,229.843933 512.915161,233.569427 
z"/>
<path fill="#337DA8" opacity="1.000000" stroke="none" 
	d="
M622.296387,154.875031 
	C620.899841,154.486679 618.910706,154.095978 618.408203,153.014511 
	C617.471741,150.998947 617.400085,148.581558 616.950989,146.239914 
	C619.937073,144.688614 621.558716,145.816483 622.071533,148.626602 
	C622.424133,150.558823 622.290833,152.579727 622.296387,154.875031 
z"/>
<path fill="#3D83AB" opacity="1.000000" stroke="none" 
	d="
M624.167175,167.087097 
	C623.741943,169.701569 623.310974,171.877060 622.880066,174.052567 
	C622.333313,173.974976 621.786499,173.897385 621.239746,173.819794 
	C620.754639,170.827698 620.269470,167.835617 619.784302,164.843536 
	C620.243774,164.481445 620.703186,164.119354 621.162659,163.757263 
	C622.162292,164.720886 623.161865,165.684509 624.167175,167.087097 
z"/>
<path fill="#4A8BB1" opacity="1.000000" stroke="none" 
	d="
M650.606934,177.193634 
	C652.916626,175.855957 655.075073,174.838104 658.527771,173.209885 
	C657.878113,176.258087 657.529602,177.893372 657.181091,179.528641 
	C654.939270,178.856918 652.697388,178.185181 650.606934,177.193634 
z"/>
<path fill="#DEEAF1" opacity="1.000000" stroke="none" 
	d="
M548.620972,226.051208 
	C547.527771,223.303009 546.698853,220.558838 545.890076,217.418793 
	C546.242310,216.980865 546.574402,216.938843 547.402954,216.820648 
	C548.774963,219.632477 549.650513,222.520477 550.488892,225.793030 
	C549.929504,226.136795 549.407410,226.096024 548.620972,226.051208 
z"/>
<path fill="#DEEAF1" opacity="1.000000" stroke="none" 
	d="
M564.571045,196.983795 
	C565.528015,198.445297 566.135498,199.903000 566.713379,201.703949 
	C566.046082,202.038345 565.408203,202.029510 564.451416,202.020447 
	C563.747498,200.612686 563.362610,199.205139 562.902588,197.440186 
	C563.292114,197.048538 563.756775,197.014267 564.571045,196.983795 
z"/>
<path fill="#DEEAF1" opacity="1.000000" stroke="none" 
	d="
M599.947632,201.710815 
	C601.082581,201.531387 602.223145,201.640823 603.775391,201.912292 
	C604.187012,202.074310 604.092590,202.007645 604.108154,201.983337 
	C603.051453,202.360886 601.979187,202.762741 600.472168,203.158844 
	C600.009460,202.768600 599.981384,202.384140 599.947632,201.710815 
z"/>
<path fill="#2473A1" opacity="1.000000" stroke="none" 
	d="
M584.300110,193.269928 
	C583.950867,193.401779 583.990356,193.405365 583.976135,193.417114 
	C584.726929,192.924942 585.492004,192.421036 586.618530,191.930893 
	C586.762329,192.554916 586.544617,193.165161 586.039429,193.946198 
	C585.384521,193.790680 585.016907,193.464371 584.300110,193.269928 
z"/>
<path fill="#2473A1" opacity="1.000000" stroke="none" 
	d="
M587.262451,201.726974 
	C587.495972,201.283401 587.759216,201.378738 587.966492,201.890488 
	C587.797791,202.038589 587.591736,202.024918 587.262451,201.726974 
z"/>
<path fill="#1B6D9D" opacity="1.000000" stroke="none" 
	d="
M231.409363,145.575592 
	C227.512939,139.742920 223.662537,134.310913 220.205719,128.639053 
	C219.123108,126.862762 218.130142,123.979713 218.860580,122.440720 
	C219.620636,120.839310 222.446884,119.539131 224.486237,119.347427 
	C231.563324,118.682121 238.418564,119.749672 244.608719,123.644089 
	C258.118195,132.143341 253.035889,146.741089 245.042770,152.995667 
	C240.828751,156.293121 237.421738,155.527298 234.573639,151.085907 
	C233.497528,149.407822 232.591110,147.620926 231.409363,145.575592 
z"/>
<path fill="#2473A1" opacity="1.000000" stroke="none" 
	d="
M293.380341,119.654999 
	C291.087280,116.897255 290.512573,106.828804 292.666565,105.222458 
	C293.680817,104.466080 296.672150,104.717117 297.484467,105.640480 
	C299.967499,108.462959 302.174835,111.673576 303.740265,115.077713 
	C304.278809,116.248802 302.912079,119.664803 301.891541,119.914726 
	C299.337250,120.540253 296.482971,119.940628 293.380341,119.654999 
z"/>
<path fill="#2473A1" opacity="1.000000" stroke="none" 
	d="
M415.236328,112.976662 
	C416.995972,117.596069 414.840668,120.582680 411.096802,121.111092 
	C408.827087,121.431442 405.531067,119.624039 403.858765,117.740372 
	C401.735840,115.349167 402.803650,112.206375 405.556824,110.498062 
	C409.230621,108.218552 412.512787,109.136696 415.236328,112.976662 
z"/>
<path fill="#DEEAF1" opacity="1.000000" stroke="none" 
	d="
M639.242798,156.734283 
	C639.405884,158.570755 639.552124,160.012482 639.715515,161.622345 
	C633.745972,160.618759 634.125916,156.298920 633.952820,152.294357 
	C634.404297,151.957077 634.855835,151.619781 635.307312,151.282501 
	C636.613525,152.968170 637.919739,154.653854 639.242798,156.734283 
z"/>
<path fill="#DEEAF1" opacity="1.000000" stroke="none" 
	d="
M635.972229,172.917267 
	C636.029236,171.193832 636.095947,169.888382 636.172119,168.397400 
	C641.915771,169.156052 640.092224,173.529785 640.884705,176.551666 
	C640.450500,176.913849 640.016357,177.276031 639.582153,177.638214 
	C638.382080,176.203888 637.182007,174.769577 635.972229,172.917267 
z"/>
<path fill="#BAD3E2" opacity="1.000000" stroke="none" 
	d="
M632.538086,166.260529 
	C633.228088,169.284470 633.539917,172.096588 633.851746,174.908707 
	C632.922729,174.907104 631.993713,174.905487 631.064697,174.903885 
	C631.429810,171.952148 631.794861,169.000412 632.538086,166.260529 
z"/>
<path fill="#F8FAFC" opacity="1.000000" stroke="none" 
	d="
M568.428711,217.528687 
	C569.382446,217.749435 569.785767,218.005493 570.362671,218.629379 
	C570.025208,219.593384 569.513977,220.189560 569.002747,220.785736 
	C568.627869,219.711807 568.253052,218.637894 568.428711,217.528687 
z"/>
</svg>